<?xml version="1.0" standalone="no"?>
<!DOCTYPE svg PUBLIC "-//W3C//DTD SVG 20010904//EN"
 "http://www.w3.org/TR/2001/REC-SVG-20010904/DTD/svg10.dtd">
<svg version="1.0" xmlns="http://www.w3.org/2000/svg"
 width="400.000000pt" height="400.000000pt" viewBox="0 0 400.000000 400.000000"
 preserveAspectRatio="xMidYMid meet">
<metadata>
Created by potrace 1.14, written by Peter Selinger 2001-2017
</metadata>
<g transform="translate(0.000000,400.000000) scale(0.100000,-0.100000)"
fill="#000000" stroke="none">
<path d="M3074 3407 c-82 -52 -225 -147 -319 -212 -180 -125 -274 -190 -407
-282 -104 -71 -160 -113 -174 -130 -7 -8 -24 -16 -38 -19 -24 -4 -29 3 -86
116 -33 67 -78 152 -100 190 -22 38 -40 73 -40 78 0 9 -30 26 -35 20 -1 -2
-33 -59 -70 -128 -38 -69 -83 -150 -100 -180 -29 -52 -53 -101 -86 -177 -8
-18 -19 -33 -25 -33 -7 0 -45 14 -85 31 -41 18 -123 49 -183 70 -59 22 -136
52 -170 68 -33 15 -88 38 -121 51 -33 12 -77 34 -99 47 -21 14 -49 26 -63 28
-23 2 -23 2 -6 -24 31 -48 240 -395 264 -441 38 -70 66 -110 73 -102 4 3 4 0
1 -9 -3 -8 6 -32 20 -52 39 -59 57 -99 48 -107 -4 -4 -84 -65 -178 -136 -178
-134 -265 -206 -350 -289 -88 -86 -87 -85 -8 -80 37 3 93 7 123 10 30 3 87 7
125 10 39 3 84 8 100 10 17 3 76 7 133 11 97 5 102 5 102 -14 0 -30 -48 -121
-197 -376 -73 -125 -133 -231 -133 -234 0 -3 -6 -13 -14 -21 -7 -9 -29 -45
-48 -81 -19 -36 -44 -81 -56 -100 -11 -19 -27 -46 -35 -60 -7 -14 -31 -56 -52
-95 -52 -95 -86 -149 -99 -157 -6 -4 -7 -10 -4 -14 4 -3 19 3 35 14 28 21 401
395 675 678 l147 152 44 -92 c24 -50 50 -107 58 -126 7 -19 26 -57 42 -84 15
-27 53 -97 84 -155 85 -163 94 -175 108 -159 16 17 44 91 51 134 3 19 21 82
40 140 19 59 34 113 34 121 0 8 18 62 41 121 22 59 43 121 46 137 3 17 7 32 9
34 2 2 25 -3 51 -12 80 -27 564 -193 628 -216 32 -11 63 -21 68 -21 4 0 -22
55 -58 122 -79 148 -206 401 -259 518 -21 47 -50 108 -64 137 -26 50 -26 52
-8 72 10 11 28 23 40 27 11 4 48 19 81 34 33 15 99 44 148 64 101 42 313 147
472 235 91 50 105 61 80 61 -16 0 -46 4 -65 9 -19 5 -53 12 -75 15 -22 4 -51
8 -65 10 -14 2 -54 7 -90 11 -36 4 -74 9 -85 11 -11 3 -38 6 -60 9 -22 2 -53
7 -70 9 -16 2 -73 10 -125 16 -52 7 -110 15 -127 18 l-33 7 108 110 c59 61
141 149 182 195 41 47 104 117 140 155 92 100 131 144 171 195 51 64 150 200
146 200 -2 0 -70 -42 -153 -93z"/>
</g>
</svg>
